<svg width="32" height="32" viewBox="0 0 32 32" fill="none" xmlns="http://www.w3.org/2000/svg">
<path d="M27.6253 8C29.3602 8 30.6331 9.63037 30.2124 11.3134L28.2123 19.3134C27.9156 20.5005 26.849 21.3333 25.6253 21.3333L11.5585 21.3333C9.6254 21.3333 7.96888 19.9508 7.62306 18.0489L5.55357 6.66667L2.66634 6.66667C1.92996 6.66667 1.33301 6.06971 1.33301 5.33333C1.33301 4.59695 1.92996 4 2.66634 4H5.55357C6.84234 4 7.94669 4.92166 8.17723 6.18964L10.2467 17.5718C10.362 18.2058 10.9142 18.6667 11.5585 18.6667L25.6253 18.6667L27.6253 10.6667H13.333C12.5966 10.6667 11.9997 10.0697 11.9997 9.33333C11.9997 8.59695 12.5966 8 13.333 8H27.6253Z" fill="#792C80"/>
<path d="M16.0003 25.3333C16.0003 26.8061 14.8064 28 13.3337 28C11.8609 28 10.667 26.8061 10.667 25.3333C10.667 23.8606 11.8609 22.6667 13.3337 22.6667C14.8064 22.6667 16.0003 23.8606 16.0003 25.3333Z" fill="#792C80"/>
<path d="M22.667 28C24.1397 28 25.3336 26.8061 25.3336 25.3333C25.3336 23.8606 24.1397 22.6667 22.667 22.6667C21.1942 22.6667 20.0003 23.8606 20.0003 25.3333C20.0003 26.8061 21.1942 28 22.667 28Z" fill="#792C80"/>
<circle cx="18.3337" cy="14.3327" r="5.66667" fill="#EE5353"/>
<path d="M17.1908 12.9844H18.0931C18.5228 12.9844 18.8411 12.877 19.0482 12.6621C19.2552 12.4473 19.3587 12.1621 19.3587 11.8066C19.3587 11.4629 19.2552 11.1953 19.0482 11.0039C18.8451 10.8125 18.5638 10.7168 18.2044 10.7168C17.8802 10.7168 17.6087 10.8066 17.39 10.9863C17.1712 11.1621 17.0618 11.3926 17.0618 11.6777H15.3685C15.3685 11.2324 15.4876 10.834 15.7259 10.4824C15.9681 10.127 16.304 9.84961 16.7337 9.65039C17.1673 9.45117 17.6439 9.35156 18.1634 9.35156C19.0658 9.35156 19.7728 9.56836 20.2845 10.002C20.7962 10.4316 21.0521 11.0254 21.0521 11.7832C21.0521 12.1738 20.9329 12.5332 20.6947 12.8613C20.4564 13.1895 20.1439 13.4414 19.7572 13.6172C20.2376 13.7891 20.5951 14.0469 20.8294 14.3906C21.0677 14.7344 21.1868 15.1406 21.1868 15.6094C21.1868 16.3672 20.9095 16.9746 20.3548 17.4316C19.804 17.8887 19.0736 18.1172 18.1634 18.1172C17.3118 18.1172 16.6146 17.8926 16.0716 17.4434C15.5326 16.9941 15.263 16.4004 15.263 15.6621H16.9564C16.9564 15.9824 17.0755 16.2441 17.3138 16.4473C17.556 16.6504 17.8529 16.752 18.2044 16.752C18.6068 16.752 18.9212 16.6465 19.1478 16.4355C19.3783 16.2207 19.4935 15.9375 19.4935 15.5859C19.4935 14.7344 19.0247 14.3086 18.0872 14.3086H17.1908V12.9844Z" fill="white"/>
</svg>
