<svg width="32" height="32" viewBox="0 0 32 32" fill="none" xmlns="http://www.w3.org/2000/svg">
<path d="M27.6253 8C29.3602 8 30.6331 9.63037 30.2124 11.3134L28.2123 19.3134C27.9156 20.5005 26.849 21.3333 25.6253 21.3333L11.5585 21.3333C9.6254 21.3333 7.96888 19.9508 7.62306 18.0489L5.55357 6.66667L2.66634 6.66667C1.92996 6.66667 1.33301 6.06971 1.33301 5.33333C1.33301 4.59695 1.92996 4 2.66634 4H5.55357C6.84234 4 7.94669 4.92166 8.17723 6.18964L10.2467 17.5718C10.362 18.2058 10.9142 18.6667 11.5585 18.6667L25.6253 18.6667L27.6253 10.6667H13.333C12.5966 10.6667 11.9997 10.0697 11.9997 9.33333C11.9997 8.59695 12.5966 8 13.333 8H27.6253Z" fill="#792C80"/>
<path d="M16.0003 25.3333C16.0003 26.8061 14.8064 28 13.3337 28C11.8609 28 10.667 26.8061 10.667 25.3333C10.667 23.8606 11.8609 22.6667 13.3337 22.6667C14.8064 22.6667 16.0003 23.8606 16.0003 25.3333Z" fill="#792C80"/>
<path d="M22.667 28C24.1397 28 25.3336 26.8061 25.3336 25.3333C25.3336 23.8606 24.1397 22.6667 22.667 22.6667C21.1942 22.6667 20.0003 23.8606 20.0003 25.3333C20.0003 26.8061 21.1942 28 22.667 28Z" fill="#792C80"/>
<circle cx="18.3337" cy="14.3327" r="5.66667" fill="#EE5353"/>
<path d="M21.3158 18H15.4681V16.8398L18.2279 13.8984C18.6068 13.4844 18.8861 13.123 19.0658 12.8145C19.2493 12.5059 19.3411 12.2129 19.3411 11.9355C19.3411 11.5566 19.2454 11.2598 19.054 11.0449C18.8626 10.8262 18.5892 10.7168 18.2337 10.7168C17.8509 10.7168 17.5482 10.8496 17.3255 11.1152C17.1068 11.377 16.9974 11.7227 16.9974 12.1523H15.2982C15.2982 11.6328 15.4212 11.1582 15.6673 10.7285C15.9173 10.2988 16.2689 9.96289 16.722 9.7207C17.1751 9.47461 17.6888 9.35156 18.263 9.35156C19.1419 9.35156 19.8236 9.5625 20.3079 9.98438C20.7962 10.4062 21.0404 11.002 21.0404 11.7715C21.0404 12.1934 20.931 12.623 20.7122 13.0605C20.4935 13.498 20.1185 14.0078 19.5872 14.5898L17.6478 16.6348H21.3158V18Z" fill="white"/>
</svg>
