<svg width="30" height="24" viewBox="0 0 30 24" fill="none" xmlns="http://www.w3.org/2000/svg">
<path d="M26.6243 4C28.3592 4 29.6321 5.63037 29.2114 7.31343L27.2114 15.3134C26.9146 16.5005 25.848 17.3333 24.6243 17.3333L10.5576 17.3333C8.62442 17.3333 6.9679 15.9508 6.62209 14.0489L4.5526 2.66667L1.66536 2.66667C0.928985 2.66667 0.332031 2.06971 0.332031 1.33333C0.332031 0.596954 0.928986 0 1.66536 0H4.5526C5.84136 0 6.94571 0.921664 7.17625 2.18964L9.24574 13.5718C9.36101 14.2058 9.91319 14.6667 10.5576 14.6667L24.6243 14.6667L26.6243 6.66667H12.332C11.5957 6.66667 10.9987 6.06971 10.9987 5.33333C10.9987 4.59695 11.5957 4 12.332 4H26.6243Z" fill="#792C80"/>
<path d="M14.9993 21.3333C14.9993 22.8061 13.8054 24 12.3327 24C10.8599 24 9.66601 22.8061 9.66601 21.3333C9.66601 19.8606 10.8599 18.6667 12.3327 18.6667C13.8054 18.6667 14.9993 19.8606 14.9993 21.3333Z" fill="#792C80"/>
<path d="M21.666 24C23.1388 24 24.3327 22.8061 24.3327 21.3333C24.3327 19.8606 23.1388 18.6667 21.666 18.6667C20.1932 18.6667 18.9993 19.8606 18.9993 21.3333C18.9993 22.8061 20.1932 24 21.666 24Z" fill="#792C80"/>
</svg>
