<svg width="35" height="34" viewBox="0 0 35 34" fill="none" xmlns="http://www.w3.org/2000/svg">
<path d="M0 1.3743C0 1.08389 0.12292 0.805369 0.341719 0.600016C0.560519 0.394663 0.857274 0.279297 1.1667 0.279297H4.66681C4.92706 0.279364 5.17981 0.361095 5.38487 0.511492C5.58993 0.661889 5.73553 0.872316 5.79851 1.10931L6.74354 4.65931H33.8344C34.0057 4.65946 34.1749 4.69502 34.3299 4.76345C34.4849 4.83188 34.622 4.93152 34.7313 5.05528C34.8407 5.17903 34.9197 5.32387 34.9627 5.47951C35.0057 5.63515 35.0116 5.79776 34.9801 5.9558L31.48 23.4759C31.4299 23.7268 31.288 23.9534 31.0788 24.1166C30.8696 24.2797 30.6063 24.3692 30.3343 24.3694H9.33362C9.06162 24.3692 8.79826 24.2797 8.58906 24.1166C8.37986 23.9534 8.23797 23.7268 8.18792 23.4759L4.69015 5.98865L3.75678 2.46931H1.1667C0.857274 2.46931 0.560519 2.35394 0.341719 2.14859C0.12292 1.94323 0 1.66471 0 1.3743ZM7.23822 6.84932L10.302 22.1794H29.3659L32.4297 6.84932H7.23822ZM11.667 24.3694C10.4293 24.3694 9.24229 24.8309 8.36709 25.6523C7.4919 26.4737 7.00022 27.5878 7.00022 28.7494C7.00022 29.9111 7.4919 31.0251 8.36709 31.8465C9.24229 32.668 10.4293 33.1294 11.667 33.1294C12.9047 33.1294 14.0918 32.668 14.967 31.8465C15.8422 31.0251 16.3338 29.9111 16.3338 28.7494C16.3338 27.5878 15.8422 26.4737 14.967 25.6523C14.0918 24.8309 12.9047 24.3694 11.667 24.3694ZM28.0009 24.3694C26.7632 24.3694 25.5761 24.8309 24.7009 25.6523C23.8257 26.4737 23.3341 27.5878 23.3341 28.7494C23.3341 29.9111 23.8257 31.0251 24.7009 31.8465C25.5761 32.668 26.7632 33.1294 28.0009 33.1294C29.2386 33.1294 30.4256 32.668 31.3008 31.8465C32.176 31.0251 32.6677 29.9111 32.6677 28.7494C32.6677 27.5878 32.176 26.4737 31.3008 25.6523C30.4256 24.8309 29.2386 24.3694 28.0009 24.3694ZM11.667 26.5594C12.2859 26.5594 12.8794 26.7901 13.317 27.2008C13.7546 27.6115 14.0004 28.1686 14.0004 28.7494C14.0004 29.3302 13.7546 29.8873 13.317 30.298C12.8794 30.7087 12.2859 30.9394 11.667 30.9394C11.0482 30.9394 10.4547 30.7087 10.0171 30.298C9.57946 29.8873 9.33362 29.3302 9.33362 28.7494C9.33362 28.1686 9.57946 27.6115 10.0171 27.2008C10.4547 26.7901 11.0482 26.5594 11.667 26.5594ZM28.0009 26.5594C28.6197 26.5594 29.2132 26.7901 29.6508 27.2008C30.0884 27.6115 30.3343 28.1686 30.3343 28.7494C30.3343 29.3302 30.0884 29.8873 29.6508 30.298C29.2132 30.7087 28.6197 30.9394 28.0009 30.9394C27.382 30.9394 26.7885 30.7087 26.3509 30.298C25.9133 29.8873 25.6675 29.3302 25.6675 28.7494C25.6675 28.1686 25.9133 27.6115 26.3509 27.2008C26.7885 26.7901 27.382 26.5594 28.0009 26.5594Z" fill="#646161"/>
</svg>
